<?xml version="1.0" standalone="no"?><!DOCTYPE svg PUBLIC "-//W3C//DTD SVG 1.1//EN" "http://www.w3.org/Graphics/SVG/1.1/DTD/svg11.dtd"><svg class="icon" width="18px" height="18.00px" viewBox="0 0 1024 1024" version="1.1" xmlns="http://www.w3.org/2000/svg"><path d="M864 800a32 32 0 0 0 32-32V256a32 32 0 0 0-32-32H160a32 32 0 0 0-32 32v512a32 32 0 0 0 32 32z m0 64H160a96 96 0 0 1-96-96V256a96 96 0 0 1 96-96h704a96 96 0 0 1 96 96v512a96 96 0 0 1-96 96z" fill="#777777" /><path d="M384 432a48 48 0 1 0-48 48 48 48 0 0 0 48-48z m64 0a112 112 0 1 1-112-112 112 112 0 0 1 112 112z m55.68 325.44a32 32 0 1 1-47.36-42.88l175.04-192a32 32 0 0 1 47.36 0l112.96 124.16a32 32 0 1 1-47.36 42.88l-89.28-98.24z m-225.92 1.92a32 32 0 0 1-43.52-46.72l138.56-128a32 32 0 0 1 43.2 0l53.76 49.28a32 32 0 1 1-43.52 47.04l-32-29.12z" fill="#777777" /></svg>